<?xml version="1.0" encoding="UTF-8"?>
<svg width="93px" height="74px" viewBox="0 0 93 74" version="1.1" xmlns="http://www.w3.org/2000/svg" xmlns:xlink="http://www.w3.org/1999/xlink">
    <!-- Generator: Sketch 42 (36781) - http://www.bohemiancoding.com/sketch -->
    <title>art/arrows</title>
    <desc>Created with Sketch.</desc>
    <defs></defs>
    <g id="Designs" stroke="none" stroke-width="1" fill="none" fill-rule="evenodd">
        <g id="Version-1a" transform="translate(-650.000000, -651.000000)" fill-rule="nonzero" fill="#2A47F4">
            <g id="art/arrows" transform="translate(650.000000, 650.878788)">
                <path d="M92.610422,52.3009861 L75.709767,33.3204986 C75.2860549,32.8445208 74.6137978,32.6809418 74.0198242,32.9078615 C73.4258505,33.1351911 73.0332066,33.7066925 73.0332066,34.3444044 L73.0332066,39.5504377 L66.5702176,39.5504377 C65.723611,39.5504377 65.0372505,40.2385762 65.0372505,41.0878338 C65.0372505,41.9370914 65.723611,42.6252299 66.5702176,42.6252299 L74.5661736,42.6252299 C75.4127802,42.6252299 76.0991407,41.9370914 76.0991407,41.0878338 L76.0991407,38.3742271 L89.4116308,53.324892 L76.0991407,68.2755568 L76.0991407,65.5619501 C76.0991407,64.7126925 75.4127802,64.024554 74.5661736,64.024554 L30.0065011,64.024554 L30.0065011,42.6254349 L60.4385538,42.6254349 C61.2851604,42.6254349 61.9715209,41.9372964 61.9715209,41.0880388 C61.9715209,40.2387812 61.2851604,39.5506427 60.4385538,39.5506427 L28.4735341,39.5506427 C27.6269275,39.5506427 26.940567,40.2387812 26.940567,41.0880388 L26.940567,65.5619501 C26.940567,66.4112078 27.6269275,67.0993463 28.4735341,67.0993463 L73.033411,67.0993463 L73.033411,72.3053795 C73.033411,72.9428864 73.4258505,73.5143878 74.0200286,73.7419224 C74.1980571,73.8099778 74.3828308,73.8427756 74.5661736,73.8427756 C74.9945868,73.8427756 75.4133934,73.6625928 75.7099714,73.3292853 L92.6106264,54.3487978 C93.1297912,53.7656122 93.1297912,52.8841717 92.610422,52.3009861 Z" id="Shape"></path>
                <path d="M30.0065011,32.9121662 C30.0065011,32.0629086 29.3201407,31.3747701 28.4735341,31.3747701 L20.477578,31.3747701 C19.6309714,31.3747701 18.944611,32.0629086 18.944611,32.9121662 L18.944611,35.9467812 L3.70201319,20.675313 L18.944611,5.40384488 L18.944611,8.43845983 C18.944611,9.28771745 19.6309714,9.97585596 20.477578,9.97585596 L65.0374549,9.97585596 L65.0374549,31.3749751 L34.6054022,31.3749751 C33.7587956,31.3749751 33.0724352,32.0631136 33.0724352,32.9123712 C33.0724352,33.7616288 33.7587956,34.4497673 34.6054022,34.4497673 L66.570422,34.4497673 C67.4170286,34.4497673 68.103389,33.7616288 68.103389,32.9123712 L68.103389,8.43825485 C68.103389,7.58899723 67.4170286,6.90085873 66.570422,6.90085873 L22.0105451,6.90085873 L22.0105451,1.69482548 C22.0105451,1.07310249 21.6371143,0.51267036 21.0646022,0.274476454 C20.4918857,0.0364875346 19.8327099,0.16767867 19.3940769,0.607168975 L0.449465934,19.5876565 C0.161676923,19.875867 0,20.2671856 0,20.675313 C0,21.0834404 0.161676923,21.474554 0.449465934,21.7629695 L19.3940769,40.7434571 C19.6873846,41.0374072 20.079211,41.1931967 20.4777824,41.1931967 C20.675433,41.1931967 20.8747187,41.1548643 21.0646022,41.0761496 C21.6371143,40.8379557 22.0105451,40.2775235 22.0105451,39.6558006 L22.0105451,34.4497673 L28.4735341,34.4497673 C29.3201407,34.4495623 30.0065011,33.7612188 30.0065011,32.9121662 Z" id="Shape"></path>
            </g>
        </g>
    </g>
</svg>