<?xml version="1.0" encoding="UTF-8"?>
<svg width="1453px" height="550px" viewBox="0 0 1453 550" version="1.1" xmlns="http://www.w3.org/2000/svg" xmlns:xlink="http://www.w3.org/1999/xlink">
    <!-- Generator: Sketch 42 (36781) - http://www.bohemiancoding.com/sketch -->
    <title>hero-graphic</title>
    <desc>Created with Sketch.</desc>
    <defs></defs>
    <g id="Designs" stroke="none" stroke-width="1" fill="none" fill-rule="evenodd" opacity="0.119999997">
        <g id="hero-graphic" fill-rule="nonzero" fill="#81AFFB">
            <g id="art/keyboard" transform="translate(581.000000, 0.000000)">
                <path d="M439.11,155.769 L367.985,155.769 L367.985,144.212 C367.985,121.297 349.342,102.655 326.428,102.655 L138.571,102.655 C123.927,102.655 112.014,90.741 112.014,76.098 L112.014,7.5 C112.014,3.358 108.657,0 104.514,0 C100.371,0 97.014,3.358 97.014,7.5 L97.014,76.098 C97.014,99.013 115.657,117.655 138.571,117.655 L326.428,117.655 C341.072,117.655 352.985,129.569 352.985,144.212 L352.985,155.769 L25.89,155.769 C11.615,155.769 0,167.383 0,181.659 L0,439.11 C0,453.386 11.614,465 25.89,465 L439.11,465 C453.385,465 465,453.386 465,439.11 L465,181.659 C465,167.383 453.386,155.769 439.11,155.769 Z M450,439.11 C450,445.114 445.115,450 439.11,450 L25.89,450 C19.885,450 15,445.115 15,439.11 L15,181.659 C15,175.655 19.885,170.769 25.89,170.769 L439.11,170.769 C445.115,170.769 450,175.654 450,181.659 L450,439.11 Z" id="Shape"></path>
                <path d="M298.879,388.057 L166.121,388.057 C161.978,388.057 158.621,391.415 158.621,395.557 C158.621,399.699 161.978,403.057 166.121,403.057 L298.879,403.057 C303.022,403.057 306.379,399.699 306.379,395.557 C306.379,391.415 303.021,388.057 298.879,388.057 Z" id="Shape"></path>
                <path d="M104.529,331.275 L68.947,331.275 C64.804,331.275 61.447,334.633 61.447,338.775 C61.447,342.917 64.804,346.275 68.947,346.275 L104.529,346.275 C108.672,346.275 112.029,342.917 112.029,338.775 C112.029,334.633 108.672,331.275 104.529,331.275 Z" id="Shape"></path>
                <path d="M396.053,331.275 L360.471,331.275 C356.328,331.275 352.971,334.633 352.971,338.775 C352.971,342.917 356.328,346.275 360.471,346.275 L396.053,346.275 C400.196,346.275 403.553,342.917 403.553,338.775 C403.553,334.633 400.195,331.275 396.053,331.275 Z" id="Shape"></path>
                <path d="M298.879,331.275 L263.296,331.275 C259.153,331.275 255.796,334.633 255.796,338.775 C255.796,342.917 259.153,346.275 263.296,346.275 L298.879,346.275 C303.022,346.275 306.379,342.917 306.379,338.775 C306.379,334.633 303.021,331.275 298.879,331.275 Z" id="Shape"></path>
                <path d="M166.121,346.275 L201.704,346.275 C205.847,346.275 209.204,342.917 209.204,338.775 C209.204,334.633 205.847,331.275 201.704,331.275 L166.121,331.275 C161.978,331.275 158.621,334.633 158.621,338.775 C158.621,342.917 161.979,346.275 166.121,346.275 Z" id="Shape"></path>
                <path d="M104.529,274.494 L68.947,274.494 C64.804,274.494 61.447,277.852 61.447,281.994 C61.447,286.136 64.804,289.494 68.947,289.494 L104.529,289.494 C108.672,289.494 112.029,286.136 112.029,281.994 C112.029,277.852 108.672,274.494 104.529,274.494 Z" id="Shape"></path>
                <path d="M396.053,274.494 L360.471,274.494 C356.328,274.494 352.971,277.852 352.971,281.994 C352.971,286.136 356.328,289.494 360.471,289.494 L396.053,289.494 C400.196,289.494 403.553,286.136 403.553,281.994 C403.553,277.852 400.195,274.494 396.053,274.494 Z" id="Shape"></path>
                <path d="M298.879,274.494 L263.296,274.494 C259.153,274.494 255.796,277.852 255.796,281.994 C255.796,286.136 259.153,289.494 263.296,289.494 L298.879,289.494 C303.022,289.494 306.379,286.136 306.379,281.994 C306.379,277.852 303.021,274.494 298.879,274.494 Z" id="Shape"></path>
                <path d="M166.121,289.494 L201.704,289.494 C205.847,289.494 209.204,286.136 209.204,281.994 C209.204,277.852 205.847,274.494 201.704,274.494 L166.121,274.494 C161.978,274.494 158.621,277.852 158.621,281.994 C158.621,286.136 161.979,289.494 166.121,289.494 Z" id="Shape"></path>
                <path d="M104.529,217.712 L68.947,217.712 C64.804,217.712 61.447,221.07 61.447,225.212 C61.447,229.354 64.804,232.712 68.947,232.712 L104.529,232.712 C108.672,232.712 112.029,229.354 112.029,225.212 C112.029,221.07 108.672,217.712 104.529,217.712 Z" id="Shape"></path>
                <path d="M396.053,217.712 L360.471,217.712 C356.328,217.712 352.971,221.07 352.971,225.212 C352.971,229.354 356.328,232.712 360.471,232.712 L396.053,232.712 C400.196,232.712 403.553,229.354 403.553,225.212 C403.553,221.07 400.195,217.712 396.053,217.712 Z" id="Shape"></path>
                <path d="M298.879,217.712 L263.296,217.712 C259.153,217.712 255.796,221.07 255.796,225.212 C255.796,229.354 259.153,232.712 263.296,232.712 L298.879,232.712 C303.022,232.712 306.379,229.354 306.379,225.212 C306.379,221.07 303.021,217.712 298.879,217.712 Z" id="Shape"></path>
                <path d="M166.121,232.712 L201.704,232.712 C205.847,232.712 209.204,229.354 209.204,225.212 C209.204,221.07 205.847,217.712 201.704,217.712 L166.121,217.712 C161.978,217.712 158.621,221.07 158.621,225.212 C158.621,229.354 161.979,232.712 166.121,232.712 Z" id="Shape"></path>
            </g>
            <g id="art/bible" transform="translate(0.000000, 145.000000)">
                <path d="M252.387097,330.557667 C252.387097,334.918147 248.856832,338.451367 244.5,338.451367 C240.143168,338.451367 236.612903,334.918147 236.612903,330.557667 L236.612903,94.8507087 C236.612903,90.4902283 240.143168,86.9570079 244.5,86.9570079 C248.856832,86.9570079 252.387097,90.4902283 252.387097,94.8507087 L252.387097,330.557667 Z M481.112903,35.5553333 C485.469735,35.5553333 489,39.0896063 489,43.4490341 L489,361.399934 C489,365.760415 485.469735,369.293635 481.112903,369.293635 C461.78531,369.293635 439.788723,361.670425 416.500755,353.599906 C389.816077,344.352698 359.570639,333.870916 329.474529,333.870916 C303.666897,333.870916 282.77871,342.423478 267.388355,359.29179 C264.452252,362.510315 259.4634,362.736601 256.245465,359.796987 C253.029632,356.857373 252.803535,351.865396 255.74069,348.644766 C268.459948,334.702386 291.578606,318.082462 329.474529,318.082462 C362.223858,318.082462 393.802742,329.025236 421.662071,338.680811 C440.312426,345.145226 458.086787,351.303365 473.225806,353.029454 L473.225806,50.9512073 C455.883658,49.2977402 436.678052,42.6417717 416.500755,35.6490052 C389.816077,26.4017979 359.570639,15.9200157 329.474529,15.9200157 C268.217026,15.9200157 252.1936,65.8239921 252.040065,66.3281365 C251.022103,69.6424383 247.964013,71.9042467 244.5,71.9042467 C241.035987,71.9042467 237.977897,69.6413858 236.959935,66.3281365 C236.319503,64.2947192 220.393877,15.9200157 159.525471,15.9200157 C129.429361,15.9200157 99.1839226,26.4017979 72.4992452,35.6490052 C52.323,42.6407192 33.1163419,49.2977402 15.7741935,50.9512073 L15.7741935,353.029454 C30.9132129,351.303365 48.6875742,345.145226 67.337929,338.679759 C95.1972581,329.024184 126.77509,318.081409 159.525471,318.081409 C197.41929,318.081409 220.536897,334.701333 233.258258,348.642661 C236.195413,351.862239 235.970368,356.855268 232.753484,359.794882 C229.5366,362.734496 224.546697,362.50821 221.610594,359.289685 C206.220239,342.422425 185.332052,333.869864 159.525471,333.869864 C129.429361,333.869864 99.1839226,344.351646 72.4992452,353.598853 C49.212329,361.669373 27.2157419,369.292583 7.88709677,369.292583 C3.53026452,369.292583 0,365.759362 0,361.398882 L0,43.4490341 C0,39.0885538 3.53026452,35.5553333 7.88709677,35.5553333 C24.561471,35.5553333 45.3392387,28.3541732 67.3400323,20.7309633 C95.1993613,11.0753885 126.777194,0.132614173 159.527574,0.132614173 C197.422445,0.132614173 220.540052,16.7525381 233.261413,30.6949186 C238.01891,35.9110761 241.705865,41.1377585 244.501052,45.7739921 C247.296239,41.1377585 250.983194,35.9110761 255.74069,30.6949186 C268.461,16.7525381 291.579658,0.132614173 329.474529,0.132614173 C362.223858,0.132614173 393.802742,11.0753885 421.662071,20.7309633 C443.660761,28.3541732 464.438529,35.5553333 481.112903,35.5553333 Z M481.112903,385.079984 C485.469735,385.079984 488.998948,388.613205 488.998948,392.973685 C488.998948,397.334165 485.468684,400.867386 481.111852,400.867386 C461.784258,400.867386 439.787671,393.244176 416.499703,385.173656 C389.815026,375.926449 359.569587,365.444667 329.473477,365.444667 C303.665845,365.444667 282.777658,373.997228 267.387303,390.865541 C265.892961,392.502168 263.779219,393.43573 261.563471,393.43573 L227.434426,393.434677 C225.218677,393.434677 223.104935,392.502168 221.610594,390.864488 C206.220239,373.997228 185.332052,365.444667 159.525471,365.444667 C129.429361,365.444667 99.1839226,375.926449 72.4992452,385.173656 C49.212329,393.244176 27.2157419,400.867386 7.88709677,400.867386 C3.53026452,400.867386 0,397.334165 0,392.973685 C0,388.613205 3.53026452,385.079984 7.88709677,385.079984 C24.561471,385.079984 45.3392387,377.878824 67.337929,370.255614 C95.1972581,360.600039 126.77509,349.657265 159.525471,349.657265 C195.113103,349.657265 217.669148,364.315341 230.819568,377.648328 L258.179381,377.649381 C271.3298,364.316394 293.884794,349.657265 329.474529,349.657265 C362.223858,349.657265 393.802742,360.600039 421.662071,370.255614 C443.660761,377.878824 464.438529,385.079984 481.112903,385.079984 Z" id="Combined-Shape"></path>
            </g>
            <g id="art/tablet" transform="translate(1138.000000, 85.000000)">
                <path d="M157.5,390.002 C145.093,390.002 135,400.095 135,412.502 C135,424.909 145.093,435.002 157.5,435.002 C169.907,435.002 180,424.909 180,412.502 C180,400.095 169.907,390.002 157.5,390.002 Z M157.5,420.002 C153.364,420.002 150,416.638 150,412.502 C150,408.366 153.364,405.002 157.5,405.002 C161.636,405.002 165,408.366 165,412.502 C165,416.638 161.636,420.002 157.5,420.002 Z" id="Shape"></path>
                <path d="M157.5,60.498 C161.911,60.498 165.5,56.909 165.5,52.498 C165.5,48.087 161.911,44.498 157.5,44.498 C153.089,44.498 149.5,48.087 149.5,52.498 C149.5,56.909 153.089,60.498 157.5,60.498 Z" id="Shape"></path>
                <path d="M87.5,160 L227.5,160 C231.642,160 235,156.642 235,152.5 C235,148.358 231.642,145 227.5,145 L87.5,145 C83.358,145 80,148.358 80,152.5 C80,156.642 83.358,160 87.5,160 Z" id="Shape"></path>
                <path d="M87.5,200 L227.5,200 C231.642,200 235,196.642 235,192.5 C235,188.358 231.642,185 227.5,185 L87.5,185 C83.358,185 80,188.358 80,192.5 C80,196.642 83.358,200 87.5,200 Z" id="Shape"></path>
                <path d="M87.5,240 L227.5,240 C231.642,240 235,236.642 235,232.5 C235,228.358 231.642,225 227.5,225 L87.5,225 C83.358,225 80,228.358 80,232.5 C80,236.642 83.358,240 87.5,240 Z" id="Shape"></path>
                <path d="M87.5,280 L227.5,280 C231.642,280 235,276.642 235,272.5 C235,268.358 231.642,265 227.5,265 L87.5,265 C83.358,265 80,268.358 80,272.5 C80,276.642 83.358,280 87.5,280 Z" id="Shape"></path>
                <path d="M87.5,320 L157.5,320 C161.642,320 165,316.642 165,312.5 C165,308.358 161.642,305 157.5,305 L87.5,305 C83.358,305 80,308.358 80,312.5 C80,316.642 83.358,320 87.5,320 Z" id="Shape"></path>
                <path d="M267.5,0 L47.5,0 C21.309,0 0,21.309 0,47.5 L0,417.5 C0,443.691 21.309,465 47.5,465 L267.5,465 C293.691,465 315,443.691 315,417.5 L315,47.5 C315,21.309 293.691,0 267.5,0 Z M300,417.5 C300,435.42 285.42,450 267.5,450 L47.5,450 C29.58,450 15,435.42 15,417.5 L15,47.5 C15,29.58 29.58,15 47.5,15 L267.5,15 C285.42,15 300,29.58 300,47.5 L300,417.5 Z" id="Shape"></path>
                <path d="M277.5,89.996 L37.5,89.996 C33.358,89.996 30,93.354 30,97.496 L30,367.505 C30,371.647 33.358,375.005 37.5,375.005 L277.5,375.005 C281.642,375.005 285,371.647 285,367.505 L285,97.496 C285,93.354 281.642,89.996 277.5,89.996 Z M270,360.004 L45,360.004 L45,104.996 L270,104.996 L270,360.004 Z" id="Shape"></path>
            </g>
        </g>
    </g>
</svg>