<?xml version="1.0" encoding="UTF-8"?>
<svg width="56px" height="75px" viewBox="0 0 56 75" version="1.1" xmlns="http://www.w3.org/2000/svg" xmlns:xlink="http://www.w3.org/1999/xlink">
    <!-- Generator: Sketch 42 (36781) - http://www.bohemiancoding.com/sketch -->
    <title>art/library</title>
    <desc>Created with Sketch.</desc>
    <defs></defs>
    <g id="Designs" stroke="none" stroke-width="1" fill="none" fill-rule="evenodd">
        <g id="Version-1a" transform="translate(-900.000000, -650.000000)" fill-rule="nonzero" fill="#2A47F4">
            <g id="art/library" transform="translate(900.000000, 650.878788)">
                <path d="M4.38611765,67.8744811 L54.7143059,67.8744811 C55.3966824,67.8744811 55.9496,67.3212116 55.9496,66.6384009 L55.9496,1.23608018 C55.9496,0.553269488 55.3966824,0 54.7143059,0 L4.38611765,0 C2.04021176,0 0.131764706,1.90982628 0.131764706,4.25722494 L0.131764706,69.6593808 C0.131764706,72.0067795 2.04021176,73.9166058 4.38611765,73.9166058 L54.7143059,73.9166058 C55.3966824,73.9166058 55.9496,73.3633363 55.9496,72.6805256 C55.9496,71.9977149 55.3966824,71.4444454 54.7143059,71.4444454 L4.38611765,71.4444454 C3.40249412,71.4444454 2.60235294,70.6437951 2.60235294,69.6593808 C2.60235294,68.6751314 3.40249412,67.8744811 4.38611765,67.8744811 Z M2.60235294,4.25722494 C2.60235294,3.27281069 3.40249412,2.47216036 4.38611765,2.47216036 L4.79788235,2.47216036 L4.79788235,15.486931 C4.79788235,16.1697416 5.3508,16.7230111 6.03317647,16.7230111 C6.71555294,16.7230111 7.26847059,16.1697416 7.26847059,15.486931 L7.26847059,2.47216036 L53.4790118,2.47216036 L53.4790118,65.4023207 L7.26847059,65.4023207 L7.26847059,20.4312517 C7.26847059,19.748441 6.71555294,19.1951715 6.03317647,19.1951715 C5.3508,19.1951715 4.79788235,19.748441 4.79788235,20.4312517 L4.79788235,65.4023207 L4.38611765,65.4023207 C3.74936471,65.4023207 3.14522353,65.5438931 2.60235294,65.7960535 L2.60235294,4.25722494 Z" id="Shape"></path>
            </g>
        </g>
    </g>
</svg>