<?xml version="1.0" encoding="UTF-8"?>
<svg width="173px" height="28px" viewBox="0 0 173 28" version="1.1" xmlns="http://www.w3.org/2000/svg" xmlns:xlink="http://www.w3.org/1999/xlink">
    <!-- Generator: Sketch 42 (36781) - http://www.bohemiancoding.com/sketch -->
    <title>logo</title>
    <desc>Created with Sketch.</desc>
    <defs>
        <linearGradient x1="50%" y1="0%" x2="50%" y2="100%" id="linearGradient-1">
            <stop stop-color="#FBDA61" offset="0%"></stop>
            <stop stop-color="#F76B1C" offset="100%"></stop>
        </linearGradient>
    </defs>
    <g id="Designs" stroke="none" stroke-width="1" fill="none" fill-rule="evenodd">
        <g id="Version-1a" transform="translate(-152.000000, -66.000000)">
            <g id="logo" transform="translate(152.000000, 66.000000)">
                <path d="M7.32805935,19.1938734 L7.32805935,22.172903 L5.56744026,22.172903 L5.56744026,19.3104441 C3.61404289,19.3104441 2.05049169,19.0082267 0.876739758,18.4037829 L0.876739758,16.1759868 C2.5559761,16.9703987 4.11952729,17.3675987 5.56744026,17.3675987 L5.56744026,11.7462993 C3.91390652,11.193665 2.75516515,10.5654846 2.09118139,9.86173931 C1.42719764,9.15799401 1.09521074,8.21032668 1.09521074,7.01870888 C1.09521074,5.88753546 1.48931132,4.95066161 2.27752429,4.20805921 C3.06573727,3.46545681 4.16236495,3.00781336 5.56744026,2.83511513 L5.56744026,0.503700658 L7.32805935,0.503700658 L7.32805935,2.78330592 C8.9301879,2.86102013 10.3695117,3.19777663 11.6460741,3.79358553 L10.7978926,5.67166941 C9.59843807,5.13630489 8.44183855,4.82545273 7.32805935,4.73910362 L7.32805935,10.2049753 C9.03299828,10.7921493 10.230293,11.4332819 10.9199793,12.1283923 C11.6096657,12.8235027 11.9545037,13.7323135 11.9545037,14.854852 C11.9545037,17.2726272 10.412371,18.7189532 7.32805935,19.1938734 Z M5.56744026,9.5703125 L5.56744026,4.79091283 C4.0938247,5.04132527 3.35702797,5.79255131 3.35702797,7.04461349 C3.35702797,7.71813659 3.53051789,8.24054091 3.87750295,8.61184211 C4.22448801,8.9831433 4.78779482,9.30263024 5.56744026,9.5703125 Z M7.32805935,12.4068668 L7.32805935,17.2380757 C8.9044853,16.9962981 9.69268645,16.2018982 9.69268645,14.854852 C9.69268645,13.7582182 8.9044853,12.9422313 7.32805935,12.4068668 Z M30.3060662,24.828125 L14.1263623,24.828125 L14.1263623,23.0148026 L30.3060662,23.0148026 L30.3060662,24.828125 Z" id="$_" fill="url(#linearGradient-1)"></path>
                <path d="M43.6699219,20.6315789 L43.1944262,18.6628289 L43.0916163,18.6628289 C42.4319163,19.5004154 41.7550914,20.0811045 41.0611213,20.4049137 C40.3671512,20.7287228 39.4718575,20.890625 38.3752134,20.890625 C36.9787056,20.890625 35.8842198,20.5193294 35.091723,19.776727 C34.2992263,19.0341246 33.9029838,17.9936333 33.9029838,16.655222 C33.9029838,13.7884314 36.0876718,12.2859793 40.4571133,12.1478207 L43.0659139,12.0571546 L43.0659139,11.1634457 C43.0659139,9.12560659 42.0206906,8.1067023 39.9302127,8.1067023 C38.6707855,8.1067023 37.2657312,8.46072837 35.7150079,9.16879112 L34.9053801,7.39432566 C36.5846165,6.56537414 38.2252743,6.15090461 39.8274028,6.15090461 C41.7722327,6.15090461 43.1794288,6.52651763 44.0490333,7.27775493 C44.9186378,8.02899224 45.3534336,9.23354434 45.3534336,10.8914474 L45.3534336,20.6315789 L43.6699219,20.6315789 Z M43.0402114,13.6761924 L40.9583114,13.7668586 C39.2790751,13.8359378 38.088206,14.1014574 37.3856683,14.5634252 C36.6831307,15.0253929 36.3318671,15.7312864 36.3318671,16.6811266 C36.3318671,18.2181409 37.1886075,18.9866365 38.902114,18.9866365 C40.1615412,18.9866365 41.1660693,18.6347691 41.9157284,17.9310238 C42.6653875,17.2272786 43.0402114,16.2364373 43.0402114,14.9584704 L43.0402114,13.6761924 Z M52.3316538,18.8312089 L52.1774389,18.8312089 C52.2802493,19.9451125 52.3316538,20.6445298 52.3316538,20.9294819 L52.3316538,27.0041118 L49.9927291,27.0041118 L49.9927291,6.40995066 L51.8818606,6.40995066 L52.2288439,8.32689145 L52.3316538,8.32689145 C53.2740823,6.8762263 54.6534343,6.15090461 56.4697512,6.15090461 C58.1918252,6.15090461 59.5433331,6.79635457 60.5243156,8.08727385 C61.505298,9.37819313 61.9957819,11.1807039 61.9957819,13.4948602 C61.9957819,15.8262863 61.5031562,17.6417493 60.51789,18.9413035 C59.5326238,20.2408576 58.1832576,20.890625 56.4697512,20.890625 C54.696272,20.890625 53.31692,20.2041598 52.3316538,18.8312089 Z M52.3316538,12.9638158 L52.3316538,13.4948602 C52.3316538,15.4549851 52.629371,16.8516611 53.2248145,17.6849301 C53.820258,18.5181991 54.769098,18.9348273 56.0713629,18.9348273 C58.4017317,18.9348273 59.5668986,17.1128883 59.5668986,13.4689556 C59.5668986,9.89410219 58.3931643,8.1067023 56.0456605,8.1067023 C54.7433955,8.1067023 53.8074067,8.48663271 53.2376658,9.24650493 C52.6679249,10.0063772 52.3659239,11.2454684 52.3316538,12.9638158 Z M71.8912323,0.555509868 C72.7993907,0.555509868 73.2534631,1.04769245 73.2534631,2.03207237 C73.2534631,2.53289724 73.1185265,2.90635157 72.8486492,3.15244655 C72.578772,3.39854153 72.2596362,3.52158717 71.8912323,3.52158717 C70.9745063,3.52158717 70.5161502,3.0250872 70.5161502,2.03207237 C70.5161502,1.04769245 70.9745063,0.555509868 71.8912323,0.555509868 Z M70.7089187,8.27508224 L67.2519367,8.00308388 L67.2519367,6.40995066 L73.0478434,6.40995066 L73.0478434,18.7793997 L77.5714778,19.0384457 L77.5714778,20.6315789 L66.2880941,20.6315789 L66.2880941,19.0384457 L70.7089187,18.7793997 L70.7089187,8.27508224 Z M87.4412257,16.7329359 C88.7434906,16.7329359 89.3946133,17.4496228 89.3946133,18.8830181 C89.3946133,20.3164134 88.7434906,21.0331003 87.4412257,21.0331003 C86.1475283,21.0331003 85.5006893,20.3164134 85.5006893,18.8830181 C85.5006893,17.4496228 86.1475283,16.7329359 87.4412257,16.7329359 Z M99.7141544,18.8312089 L99.5599396,18.8312089 L99.0844439,20.6315789 L97.3752298,20.6315789 L97.3752298,0.477796053 L99.7141544,0.477796053 L99.7141544,5.34786184 C99.7141544,6.04728968 99.6798848,7.02302006 99.6113445,8.27508224 L99.7141544,8.27508224 C100.63088,6.85895674 102.010232,6.15090461 103.852252,6.15090461 C105.574326,6.15090461 106.925834,6.79635457 107.906816,8.08727385 C108.887799,9.37819313 109.378283,11.1807039 109.378283,13.4948602 C109.378283,15.8262863 108.885657,17.6417493 107.900391,18.9413035 C106.915124,20.2408576 105.565758,20.890625 103.852252,20.890625 C102.078773,20.890625 100.699421,20.2041598 99.7141544,18.8312089 Z M99.7141544,13.4948602 C99.7141544,15.4549851 100.011872,16.8516611 100.607315,17.6849301 C101.202759,18.5181991 102.151599,18.9348273 103.453864,18.9348273 C105.784232,18.9348273 106.949399,17.1128883 106.949399,13.4689556 C106.949399,9.89410219 105.775665,8.1067023 103.428161,8.1067023 C102.100194,8.1067023 101.149212,8.51253706 100.575187,9.32421875 C100.001162,10.1359004 99.7141544,11.5261004 99.7141544,13.4948602 Z M119.273733,0.555509868 C120.181891,0.555509868 120.635964,1.04769245 120.635964,2.03207237 C120.635964,2.53289724 120.501027,2.90635157 120.23115,3.15244655 C119.961273,3.39854153 119.642137,3.52158717 119.273733,3.52158717 C118.357007,3.52158717 117.898651,3.0250872 117.898651,2.03207237 C117.898651,1.04769245 118.357007,0.555509868 119.273733,0.555509868 Z M118.091419,8.27508224 L114.634437,8.00308388 L114.634437,6.40995066 L120.430344,6.40995066 L120.430344,18.7793997 L124.953978,19.0384457 L124.953978,20.6315789 L113.670595,20.6315789 L113.670595,19.0384457 L118.091419,18.7793997 L118.091419,8.27508224 Z M131.302488,18.8312089 L131.148273,18.8312089 L130.672778,20.6315789 L128.963564,20.6315789 L128.963564,0.477796053 L131.302488,0.477796053 L131.302488,5.34786184 C131.302488,6.04728968 131.268219,7.02302006 131.199678,8.27508224 L131.302488,8.27508224 C132.219214,6.85895674 133.598566,6.15090461 135.440586,6.15090461 C137.16266,6.15090461 138.514168,6.79635457 139.49515,8.08727385 C140.476132,9.37819313 140.966616,11.1807039 140.966616,13.4948602 C140.966616,15.8262863 140.473991,17.6417493 139.488724,18.9413035 C138.503458,20.2408576 137.154092,20.890625 135.440586,20.890625 C133.667106,20.890625 132.287754,20.2041598 131.302488,18.8312089 Z M131.302488,13.4948602 C131.302488,15.4549851 131.600205,16.8516611 132.195649,17.6849301 C132.791092,18.5181991 133.739932,18.9348273 135.042197,18.9348273 C137.372566,18.9348273 138.537733,17.1128883 138.537733,13.4689556 C138.537733,9.89410219 137.363999,8.1067023 135.016495,8.1067023 C133.688527,8.1067023 132.737546,8.51253706 132.163521,9.32421875 C131.589496,10.1359004 131.302488,11.5261004 131.302488,13.4948602 Z M149.564092,2.32997533 L146.119961,2.05797697 L146.119961,0.477796053 L151.915868,0.477796053 L151.915868,18.7793997 L156.439502,19.0384457 L156.439502,20.6315789 L145.143267,20.6315789 L145.143267,19.0384457 L149.564092,18.7793997 L149.564092,2.32997533 Z M172.606355,13.9740954 L162.6595,13.9740954 C162.72804,17.2121872 164.201633,18.8312089 167.080324,18.8312089 C168.750993,18.8312089 170.335963,18.5030872 171.835281,17.8468339 L171.835281,19.9192023 C170.413071,20.5668207 168.853803,20.890625 167.157432,20.890625 C165.058386,20.890625 163.379175,20.245175 162.119748,18.9542558 C160.860321,17.6633365 160.230616,15.8867301 160.230616,13.6243832 C160.230616,11.3274967 160.811058,9.50771642 161.971959,8.16498766 C163.132859,6.82225891 164.685701,6.15090461 166.630531,6.15090461 C168.446848,6.15090461 169.896881,6.729435 170.980674,7.88651316 C172.064467,9.04359131 172.606355,10.5848999 172.606355,12.5104852 L172.606355,13.9740954 Z M162.710905,12.0571546 L170.074662,12.0571546 C170.074662,9.42350657 168.909495,8.1067023 166.579126,8.1067023 C164.223055,8.1067023 162.933661,9.42350657 162.710905,12.0571546 Z" id="api.bible" fill="#FFFFFF"></path>
            </g>
        </g>
    </g>
</svg>