<?xml version="1.0" encoding="UTF-8"?>
<svg width="74px" height="75px" viewBox="0 0 74 75" version="1.1" xmlns="http://www.w3.org/2000/svg" xmlns:xlink="http://www.w3.org/1999/xlink">
    <!-- Generator: Sketch 42 (36781) - http://www.bohemiancoding.com/sketch -->
    <title>art/search</title>
    <desc>Created with Sketch.</desc>
    <defs></defs>
    <g id="Designs" stroke="none" stroke-width="1" fill="none" fill-rule="evenodd">
        <g id="Version-1a" transform="translate(-398.000000, -650.000000)" fill-rule="nonzero" fill="#2A47F4">
            <g id="art/search" transform="translate(398.000000, 650.878788)">
                <path d="M50.733286,0 C37.9043914,0 27.4673677,10.4370237 27.4673677,23.2659183 C27.4673677,36.0948129 37.9043914,46.5318366 50.733286,46.5318366 C63.5621806,46.5318366 73.9992043,36.0948129 73.9992043,23.2659183 C73.9992043,10.4370237 63.5621806,0 50.733286,0 Z M50.733286,44.1447398 C39.2206366,44.1447398 29.8544645,34.7785677 29.8544645,23.2659183 C29.8544645,11.7532688 39.2206366,2.38709677 50.733286,2.38709677 C62.2459355,2.38709677 71.6121075,11.7532688 71.6121075,23.2659183 C71.6121075,34.7785677 62.2459355,44.1447398 50.733286,44.1447398 Z" id="Shape"></path>
                <path d="M41.0333978,13.5663484 C40.5672774,14.0324688 40.5674366,14.7882237 41.0333978,15.2541849 C41.2665376,15.4871656 41.5719269,15.6036559 41.8773161,15.6036559 C42.1827054,15.6036559 42.4882538,15.4871656 42.7213935,15.2540258 C44.8615054,13.1140731 47.7067656,11.9354839 50.7334452,11.9354839 C53.7599656,11.9354839 56.6052258,13.113914 58.7451785,15.2540258 C59.2111398,15.7203054 59.9668946,15.7201462 60.4330151,15.2541849 C60.8991355,14.7880645 60.8991355,14.0323097 60.4330151,13.5663484 C57.8422194,10.9752344 54.3974796,9.5483871 50.7334452,9.5483871 C47.0690925,9.5483871 43.6243527,10.9753935 41.0333978,13.5663484 Z" id="Shape"></path>
                <path d="M32.043114,40.2680946 L27.4544774,44.8567312 C26.4592172,44.1892989 25.2890624,43.8305978 24.0638452,43.8305978 C22.4331398,43.8305978 20.9001462,44.4655656 19.7471785,45.6185333 L1.34329892,64.022572 C-0.168210753,65.5340817 -0.1332,67.0785333 0.162322581,68.1080086 C0.471053763,69.1839527 1.20277849,70.2729462 2.46459785,71.5347656 C3.52287742,72.592886 5.14578495,73.9996817 7.0136086,74 L7.01408602,74 C8.08796129,74 9.08465376,73.5477247 9.97647312,72.6560645 L26.1361634,56.4963742 C26.1366409,56.4958968 26.1371183,56.4954194 26.1377548,56.4949419 C26.1383914,56.4944645 26.1387097,56.4939871 26.1391871,56.4933505 L28.3803527,54.2521849 C29.5334796,53.0990581 30.1684473,51.5660645 30.1684473,49.9355183 C30.1684473,48.7101419 29.8099054,47.5401462 29.142314,46.5447269 L33.7309505,41.9560903 C34.197071,41.4898108 34.197071,40.7342151 33.7309505,40.2680946 C33.2648301,39.8021333 32.5090753,39.8021333 32.043114,40.2680946 Z M8.2887957,70.9679097 C7.85482151,71.402043 7.43787527,71.6129032 7.01424516,71.6129032 L7.01408602,71.6129032 C6.28729462,71.6127441 5.32449892,71.0186753 4.15259355,69.8466108 C1.72682581,67.4210022 2.26853763,66.4733247 3.03129462,65.7105677 L18.3483398,50.3933634 L23.6058409,55.6508645 L8.2887957,70.9679097 Z M26.6925161,52.5641892 L25.2938366,53.9628688 L20.0363355,48.7055269 L21.4350151,47.3068473 C22.1372989,46.6047226 23.0708129,46.2178538 24.0638452,46.2178538 C25.0568774,46.2178538 25.9903914,46.6045634 26.6926753,47.3068473 C27.3948,48.008972 27.7815097,48.942486 27.7815097,49.9355183 C27.7813505,50.9283914 27.3946409,51.8620645 26.6925161,52.5641892 Z" id="Shape"></path>
                <path d="M68.0796817,24.4710839 C67.426572,24.3811699 66.8243871,24.8375828 66.7344731,25.4906925 C65.6415011,33.4311312 58.7625247,39.4187656 50.7334452,39.4187656 C41.8267097,39.4187656 34.5805978,32.1726538 34.5805978,23.2659183 C34.5805978,14.3591828 41.8265505,7.11307097 50.733286,7.11307097 C58.7625247,7.11307097 65.6415011,13.1010237 66.734314,21.0413032 C66.824228,21.6944129 67.4268903,22.1517806 68.0795226,22.0609118 C68.7326323,21.971157 69.1890452,21.3688129 69.0992903,20.7158624 C68.4940817,16.3193075 66.3157763,12.2769978 62.9655656,9.33354839 C59.5838452,6.36224946 55.2396473,4.72597419 50.733286,4.72597419 C40.5103054,4.72597419 32.1933419,13.0429376 32.1933419,23.2659183 C32.1933419,33.4888989 40.5103054,41.8058624 50.733286,41.8058624 C55.2396473,41.8058624 59.583686,40.1695871 62.9654065,37.1984473 C66.3156172,34.2548387 68.4939226,30.2126882 69.0991312,25.8161333 C69.1890452,25.1630237 68.7326323,24.5608387 68.0796817,24.4710839 Z" id="Shape"></path>
            </g>
        </g>
    </g>
</svg>