<?xml version="1.0" encoding="UTF-8"?>
<svg width="74px" height="75px" viewBox="0 0 74 75" version="1.1" xmlns="http://www.w3.org/2000/svg" xmlns:xlink="http://www.w3.org/1999/xlink">
    <!-- Generator: Sketch 42 (36781) - http://www.bohemiancoding.com/sketch -->
    <title>art/world-globe</title>
    <desc>Created with Sketch.</desc>
    <defs></defs>
    <g id="Designs" stroke="none" stroke-width="1" fill="none" fill-rule="evenodd">
        <g id="Version-1a" transform="translate(-151.000000, -650.000000)" fill-rule="nonzero" fill="#2A47F4">
            <g id="art/world-globe" transform="translate(151.000000, 650.878788)">
                <path d="M63.1629846,10.8370154 C56.1744571,3.84865055 46.8831473,0 37,0 C27.1168527,0 17.8255429,3.84865055 10.8370154,10.8370154 C3.84865055,17.8253802 0,27.1168527 0,37 C0,46.8831473 3.84865055,56.1744571 10.8370154,63.1629846 C17.8255429,70.1513495 27.1168527,74 37,74 C46.8831473,74 56.1744571,70.1513495 63.1629846,63.1629846 C70.1513495,56.1744571 74,46.8831473 74,37 C74,27.1168527 70.1513495,17.8253802 63.1629846,10.8370154 Z M37,71.5604396 C17.9432923,71.5604396 2.43956044,56.0567077 2.43956044,37 C2.43956044,17.9432923 17.9432923,2.43956044 37,2.43956044 C56.0567077,2.43956044 71.5604396,17.9432923 71.5604396,37 C71.5604396,56.0567077 56.0567077,71.5604396 37,71.5604396 Z" id="Shape"></path>
                <path d="M66.4324835,46.7610066 C63.492,45.4168088 59.8829143,44.3155912 55.8150286,43.4897187 C56.0093802,41.3633978 56.1098901,39.192189 56.1098901,37 C56.1098901,34.807811 56.0093802,32.6366022 55.8150286,30.5101187 C59.8829143,29.6844088 63.492,28.5830286 66.4324835,27.2388308 C67.0451385,26.9587692 67.3147912,26.235033 67.0347297,25.622378 C66.7545055,25.0097231 66.0312571,24.7400703 65.4182769,25.0201319 C62.7280923,26.249833 59.3577582,27.2764 55.5457011,28.0603121 C55.0290022,24.0117802 54.1681626,20.165244 53.0057934,16.6927736 C54.5053099,15.9716396 55.9617275,15.1478813 57.3639868,14.2214989 C57.9260615,13.8501978 58.0807297,13.0934462 57.7094286,12.5313714 C57.3381275,11.9692967 56.5812132,11.8146286 56.0193011,12.1859297 C54.7777275,13.0061099 53.4911033,13.7412308 52.1673978,14.3893407 C51.1037495,11.6876088 49.8464,9.26105934 48.4160044,7.20938901 C48.0308791,6.65690989 47.2705495,6.52094505 46.7179077,6.90623297 C46.1654286,7.29152088 46.0296264,8.05168791 46.4149143,8.60432967 C47.7596,10.5333714 48.9424615,12.8237934 49.9434945,15.3814286 C46.2306462,16.8828967 42.2718901,17.7271473 38.2199429,17.8683165 L38.2199429,6.0989011 C38.2199429,5.42525714 37.6739692,4.87912088 37.0001626,4.87912088 C36.326356,4.87912088 35.7803824,5.42525714 35.7803824,6.0989011 L35.7803824,17.8684791 C31.7284352,17.7273099 27.7696791,16.8830593 24.0568308,15.3815912 C25.0578637,12.823956 26.2407253,10.5336967 27.585411,8.60449231 C27.9706989,8.05185055 27.8348967,7.29152088 27.2824176,6.9063956 C26.7296132,6.52110769 25.9694462,6.65690989 25.5843209,7.20955165 C24.1540879,9.26122198 22.8965758,11.6876088 21.8329275,14.3895033 C20.509222,13.741556 19.2225978,13.0064352 17.9810242,12.1860923 C17.4191121,11.8147912 16.6623604,11.9694593 16.2908967,12.5315341 C15.9195956,13.0936088 16.0742637,13.8503604 16.6363385,14.2216615 C18.0385978,15.148044 19.4950154,15.9719648 20.9945319,16.6929363 C19.8321626,20.1655692 18.9713231,24.0119429 18.4546242,28.0604747 C14.642567,27.2765626 11.272233,26.2499956 8.58204835,25.0202945 C7.96939341,24.740233 7.24549451,25.0098857 6.9655956,25.6225407 C6.6856967,26.2351956 6.95534945,26.9589319 7.56784176,27.2389934 C10.5083253,28.5831912 14.117411,29.6844088 18.1852967,30.5102813 C17.9906198,32.6366022 17.8901099,34.807811 17.8901099,37 C17.8901099,39.192189 17.9906198,41.3633978 18.1849714,43.4898813 C14.1170857,44.3155912 10.508,45.4169714 7.56751648,46.7611692 C6.95486154,47.0412308 6.68520879,47.764967 6.96527033,48.377622 C7.24549451,48.9902769 7.96906813,49.2600923 8.58172308,48.9798681 C11.2719077,47.750167 14.6422418,46.7236 18.4542989,45.9396879 C18.9709978,49.9882198 19.8318374,53.834756 20.9942066,57.3072264 C19.4946901,58.0283604 18.0384352,58.8521187 16.6360132,59.7785011 C16.0739385,60.1498022 15.9192703,60.9065538 16.2905714,61.4686286 C16.6617099,62.0307033 17.4186242,62.1853714 17.9806989,61.8140703 C19.2222725,60.9938901 20.5088967,60.2587692 21.8326022,59.6106593 C22.8962505,62.3125538 24.1536,64.7389407 25.5839956,66.790611 C25.8211209,67.1306857 26.2002286,67.3128396 26.5856791,67.3128396 C26.8262198,67.3128396 27.0696879,67.241767 27.2820923,67.0936044 C27.8345714,66.7083165 27.9703736,65.9481495 27.5850857,65.3953451 C26.2404,63.4661407 25.0575385,61.1758813 24.0565055,58.6182462 C27.7693538,57.116778 31.7281099,56.2725275 35.7800571,56.1313582 L35.7800571,67.9010989 C35.7800571,68.5747429 36.3260308,69.1208791 36.9998374,69.1208791 C37.673644,69.1208791 38.2196176,68.5747429 38.2196176,67.9010989 L38.2196176,56.1315209 C42.2715648,56.2726901 46.2303209,57.1169407 49.9431692,58.6184088 C48.9421363,61.176044 47.7592747,63.4663033 46.414589,65.3955077 C46.0293011,65.9481495 46.1651033,66.7084791 46.7175824,67.093767 C46.9301495,67.2419297 47.1732923,67.3130022 47.4139956,67.3130022 C47.7994462,67.3130022 48.1785538,67.1308484 48.4156791,66.7907736 C49.8459121,64.7391033 51.1034242,62.3125538 52.1670725,59.610822 C53.490778,60.2587692 54.7774022,60.9938901 56.0189758,61.814233 C56.2258505,61.951011 56.4593978,62.0163912 56.6901802,62.0163912 C57.0862022,62.0163912 57.4744176,61.8238286 57.7091033,61.4687912 C58.0804044,60.9067165 57.9257363,60.1499648 57.3636615,59.7786637 C55.9612396,58.8522813 54.5049846,58.0285231 53.0054681,57.307389 C54.1678374,53.834756 55.0286769,49.9883824 55.5453758,45.9398505 C59.357433,46.7237626 62.727767,47.7503297 65.4179516,48.9800308 C65.582378,49.0551692 65.754611,49.0907868 65.9242418,49.0907868 C66.3869451,49.0907868 66.8294813,48.8261758 67.0344044,48.3777846 C67.3147912,47.7648044 67.0449758,47.0410681 66.4324835,46.7610066 Z M53.6703297,37 C53.6703297,39.0422374 53.5799033,41.0625187 53.4068571,43.0414901 C48.7598198,42.2548132 43.6071429,41.8093495 38.2197802,41.7508 L38.2197802,32.2493626 C43.6071429,32.1908132 48.7598198,31.7451868 53.4068571,30.9586725 C53.5799033,32.9374813 53.6703297,34.9577626 53.6703297,37 Z M50.7703429,17.678844 C51.8593626,20.9815209 52.665556,24.6459033 53.1474505,28.5109802 C48.5713231,29.2952176 43.4762198,29.7481626 38.2197802,29.808989 L38.2197802,20.3086901 C42.5560176,20.1676835 46.7938593,19.2751297 50.7703429,17.678844 Z M23.2296571,17.678844 C27.2061407,19.2751297 31.4439824,20.1675209 35.7802198,20.3088527 L35.7802198,29.8091516 C30.5237802,29.7483253 25.4286769,29.2953802 20.8525495,28.5111429 C21.3346066,24.6459033 22.1408,20.9815209 23.2296571,17.678844 Z M20.3296703,37 C20.3296703,34.9577626 20.4200967,32.9374813 20.5931429,30.9585099 C25.2401802,31.7451868 30.3928571,32.1906505 35.7802198,32.2492 L35.7802198,41.7506374 C30.3928571,41.8091868 25.2401802,42.2548132 20.5931429,43.0413275 C20.4200967,41.0625187 20.3296703,39.0422374 20.3296703,37 Z M23.2298198,56.321156 C22.1408,53.0184791 21.3346066,49.3540967 20.8525495,45.4890198 C25.4286769,44.7047824 30.5237802,44.2518374 35.7802198,44.191011 L35.7802198,53.6913099 C31.4439824,53.8323165 27.2061407,54.7248703 23.2298198,56.321156 Z M50.7701802,56.321156 C46.7938593,54.7248703 42.5558549,53.8324791 38.2197802,53.6911473 L38.2197802,44.1908484 C43.4762198,44.2516747 48.5713231,44.7046198 53.1474505,45.4888571 C52.6653934,49.3540967 51.8592,53.0184791 50.7701802,56.321156 Z" id="Shape"></path>
            </g>
        </g>
    </g>
</svg>